<svg width="24" height="26" viewBox="0 0 24 26" fill="none" xmlns="http://www.w3.org/2000/svg">
<path fill-rule="evenodd" clip-rule="evenodd" d="M8.80838 23.2333V19.6555C8.80836 18.7454 9.55026 18.006 10.4695 17.9999H13.8366C14.7602 17.9999 15.5089 18.7411 15.5089 19.6555V23.2444C15.5087 24.0171 16.1316 24.6486 16.9118 24.6667H19.1566C21.3943 24.6667 23.2083 22.8708 23.2083 20.6555V10.4775C23.1963 9.60598 22.783 8.78758 22.0859 8.25521L14.409 2.13286C13.0641 1.06684 11.1522 1.06684 9.80728 2.13286L2.16399 8.26633C1.46426 8.79654 1.05024 9.61629 1.04163 10.4886V20.6555C1.04163 22.8708 2.85565 24.6667 5.09336 24.6667H7.33808C8.13771 24.6667 8.78593 24.0249 8.78593 23.2333" fill="#7EC042"/>
<path d="M8.80838 23.2333V19.6555C8.80836 18.7454 9.55026 18.006 10.4695 17.9999H13.8366C14.7602 17.9999 15.5089 18.7411 15.5089 19.6555V19.6555V23.2444C15.5087 24.0171 16.1316 24.6486 16.9118 24.6667H19.1566C21.3943 24.6667 23.2083 22.8708 23.2083 20.6555V20.6555V10.4775C23.1963 9.60597 22.783 8.78758 22.0859 8.25521L14.409 2.13286C13.0641 1.06684 11.1522 1.06684 9.80728 2.13286L2.16399 8.26633C1.46426 8.79654 1.05024 9.61629 1.04163 10.4886V20.6555C1.04163 22.8708 2.85565 24.6667 5.09336 24.6667H7.33808C8.13771 24.6667 8.78593 24.0249 8.78593 23.2333V23.2333" stroke="#7EC042" stroke-width="1.5" stroke-linecap="round" stroke-linejoin="round"/>
</svg>
